<svg xmlns="http://www.w3.org/2000/svg" width="1920" height="1920" viewBox="0 0 1920 1920">
  <defs>
    <style>
      .cls-1 {
        fill: #fff;
      }
    </style>
  </defs>
  <title>logo-black</title>
  <g id="Layer_2" data-name="Layer 2">
    <g id="Layer_1-2" data-name="Layer 1">
      <rect class="cls-1" width="1920" height="1920"/>
      <g>
        <path d="M872.16223,15.67694Q882.38263,7.655,892.62549,0H0V700.23718Z"/>
        <path d="M1842.33679,106.3631A879.165,879.165,0,0,1,1920,222.64551V0H1744.23364A875.49971,875.49971,0,0,1,1842.33679,106.3631Z"/>
        <path d="M1074.64526,512.26666,572.443,906.44519,763.46783,1149.82l502.20234-394.17859c88.8518-69.73981,169.97558-133.41394,74.46435-255.09973C1244.62085,378.85272,1163.49707,442.52686,1074.64526,512.26666Z"/>
        <path d="M1920,1920V826.44678c-50.75513,86.51855-124.2793,168.67645-220.06177,243.85608l-618.09472,485.1427L1367.98225,1920"/>
        <polygon points="0 1171.363 0 1920 587.605 1920 0 1171.363"/>
      </g>
    </g>
  </g>
</svg>
