<svg xmlns="http://www.w3.org/2000/svg" width="40" height="40" viewBox="0 0 40 40">
  <defs>
    <style>
      .cls-1 {
        fill: #fff;
        opacity: 0;
      }

      .cls-2 {
        fill: #9a9aa0;
      }
    </style>
  </defs>
  <title>facebook</title>
  <g id="Layer_2" data-name="Layer 2">
    <g id="Layer_2-2" data-name="Layer 2">
      <rect class="cls-1" width="40" height="40"/>
    </g>
    <g id="Layer_1-2" data-name="Layer 1">
      <path class="cls-2" d="M32.25,10.35112v19.25a2.62568,2.62568,0,0,1-2.625,2.625H22.11914V23.897H25.2793l.60156-3.92089H22.11914v-2.5459a1.96063,1.96063,0,0,1,2.21094-2.11817h1.71V11.97612a20.88769,20.88769,0,0,0-3.03613-.26465c-3.09961,0-5.12305,1.87793-5.12305,5.27636v2.98829H14.43555V23.897h3.44531v8.32911H10.375a2.62568,2.62568,0,0,1-2.625-2.625v-19.25a2.62568,2.62568,0,0,1,2.625-2.625h19.25A2.62568,2.62568,0,0,1,32.25,10.35112Z"/>
    </g>
  </g>
</svg>
