<svg xmlns="http://www.w3.org/2000/svg" width="16.01831" height="16.01831" viewBox="0 0 16.01831 16.01831">
  <defs>
    <style>
      .cls-1 {
        fill: #fff;
        opacity: 0;
      }

      .cls-2 {
        fill: #959595;
      }
    </style>
  </defs>
  <title>instagram</title>
  <g id="Layer_2" data-name="Layer 2">
    <g id="Layer_2-2" data-name="Layer 2">
      <rect class="cls-1" width="16.01831" height="16.01831"/>
    </g>
    <g id="Layer_1-2" data-name="Layer 1">
      <path class="cls-2" d="M15.62222,11.16074a4.566,4.566,0,0,1-1.23877,3.21177,4.53462,4.53462,0,0,1-3.21177,1.23755c-1.26565.07208-5.05894.07208-6.32459,0a4.57323,4.57323,0,0,1-3.21238-1.23755A4.5362,4.5362,0,0,1,.39655,11.16074c-.07208-1.26565-.07208-5.06016,0-6.32581A4.5521,4.5521,0,0,1,1.63471,1.62316,4.56324,4.56324,0,0,1,4.84709.38866C6.11274.3172,9.906.3172,11.17168.38866a4.56447,4.56447,0,0,1,3.21177,1.23817A4.53937,4.53937,0,0,1,15.62222,4.8386C15.69369,6.10425,15.69369,9.89509,15.62222,11.16074ZM14.29488,7.99906A16.89545,16.89545,0,0,0,13.987,3.48132a2.58528,2.58528,0,0,0-1.45746-1.45745A17.01384,17.01384,0,0,0,8.01122,1.716a16.8756,16.8756,0,0,0-4.519.30786A2.58706,2.58706,0,0,0,2.03481,3.48132,17.03654,17.03654,0,0,0,1.727,7.99906a16.90059,16.90059,0,0,0,.30786,4.519,2.58528,2.58528,0,0,0,1.45745,1.45746,17.01669,17.01669,0,0,0,4.519.30786,16.87316,16.87316,0,0,0,4.51834-.30786A2.58713,2.58713,0,0,0,13.987,12.518,16.89046,16.89046,0,0,0,14.29488,7.99906Zm-2.35355,0A3.93042,3.93042,0,1,1,8.01122,4.06894,3.92484,3.92484,0,0,1,11.94133,7.99906Zm-1.375,0a2.55543,2.55543,0,1,0-2.55512,2.55573A2.55751,2.55751,0,0,0,10.56634,7.99906ZM12.102,4.82516a.91687.91687,0,1,1,.91686-.91626A.91476.91476,0,0,1,12.102,4.82516Z"/>
    </g>
  </g>
</svg>
