<svg xmlns="http://www.w3.org/2000/svg" width="16" height="16" viewBox="0 0 16 16">
  <defs>
    <style>
      .cls-1 {
        fill: #fff;
        opacity: 0;
      }

      .cls-2 {
        fill: #959595;
      }
    </style>
  </defs>
  <title>linkedin</title>
  <g id="Layer_2" data-name="Layer 2">
    <g id="Layer_2-2" data-name="Layer 2">
      <rect class="cls-1" width="16" height="16"/>
    </g>
    <g id="Layer_1-2" data-name="Layer 1">
      <path class="cls-2" d="M15.66667,1.42941V14.55148a1.10275,1.10275,0,0,1-1.09524,1.10563H1.4249A1.1,1.1,0,0,1,.33333,14.55148V1.42941A1.1,1.1,0,0,1,1.4249.32378H14.57143A1.10275,1.10275,0,0,1,15.66667,1.42941ZM5.14884,3.832A1.31771,1.31771,0,1,0,3.83113,5.14967,1.32063,1.32063,0,0,0,5.14884,3.832ZM4.971,13.46664V6.149h-2.276v7.31768H4.971Zm8.5156-4.01119c0-1.97167-.42783-3.488-2.7277-3.488a2.39561,2.39561,0,0,0-2.1532,1.18081H8.57512V6.149H6.395v7.31768H8.66741V9.84538c0-.95466.18152-1.87877,1.36538-1.87877,1.16369,0,1.1808,1.09157,1.1808,1.9405v3.55953h2.273Z"/>
    </g>
  </g>
</svg>
