<svg xmlns="http://www.w3.org/2000/svg" width="16" height="16" viewBox="0 0 16 16">
  <defs>
    <style>
      .cls-1 {
        fill: #fff;
        opacity: 0;
      }

      .cls-2 {
        fill: #959595;
      }
    </style>
  </defs>
  <title>whatsapp</title>
  <g id="Layer_2" data-name="Layer 2">
    <g id="Layer_2-2" data-name="Layer 2">
      <rect class="cls-1" width="16" height="16"/>
    </g>
    <g id="Layer_1-2" data-name="Layer 1">
      <path class="cls-2" d="M15.66667,7.92566a7.67162,7.67162,0,0,1-7.67034,7.59822h-.003a7.57886,7.57886,0,0,1-3.63165-.92411L.33333,15.65711l1.07813-3.936A7.59937,7.59937,0,0,1,13.36984,2.55215,7.6266,7.6266,0,0,1,15.66667,7.92566Zm-1.28349,0a6.33828,6.33828,0,0,0-1.92033-4.46652A6.2564,6.2564,0,0,0,8,1.60726a6.31845,6.31845,0,0,0-5.35273,9.67562l.15035.23959-.63685,2.331,2.38911-.62647.22919.13691a6.30353,6.30353,0,0,0,3.21726.87949A6.38581,6.38581,0,0,0,14.38318,7.92566Zm-2.56329,1.814a1.58933,1.58933,0,0,1-.11.90333,1.94192,1.94192,0,0,1-1.27981.90332,3.71436,3.71436,0,0,1-2.27971-.4755A8.48044,8.48044,0,0,1,4.9062,8.20253a3.71288,3.71288,0,0,1-.77376-1.96434,2.13554,2.13554,0,0,1,.66374-1.5848.70367.70367,0,0,1,.50667-.23591c.12652,0,.25364,0,.363.00672.11612.00672.27381-.04462.42782.32515.15708.37954.53723,1.314.5849,1.41a.35027.35027,0,0,1,.01712.33187c-.36243.72547-.753.70163-.5574,1.03717A5.16868,5.16868,0,0,0,8.72242,9.78732c.18824.096.3007.07884.41071-.04767.11246-.13018.4755-.55495.602-.74625.12651-.19192.25364-.16074.42782-.096.1748.06173,1.1093.52012,1.29754.61607C11.64876,9.6058,11.77527,9.65408,11.81989,9.73965Z"/>
    </g>
  </g>
</svg>
