<svg width="1366" height="768" viewBox="0 0 1366 768" fill="none" xmlns="http://www.w3.org/2000/svg">
<g clip-path="url(#clip0_84_771)">
<path d="M620.534 11.1699C625.372 7.32802 630.21 3.62844 635.048 0H0V498.163L620.534 11.1699Z" fill="#C2C2C2"/>
<path d="M1310.72 75.6992C1332.13 103.019 1350.56 130.624 1366 158.442V0H1240.93C1265.19 22.1264 1288.52 47.3831 1310.72 75.6992Z" fill="#C2C2C2"/>
<path d="M764.533 364.48L407.239 644.866L543.127 818.035L900.422 537.578C963.67 487.989 1021.37 442.669 953.425 356.085C885.481 269.572 827.782 314.82 764.533 364.48Z" fill="#C2C2C2"/>
<path d="M1366 1366V587.949C1329.86 649.49 1277.57 707.972 1209.41 761.474L769.656 1106.6L973.275 1366" fill="#C2C2C2"/>
</g>
<defs>
<clipPath id="clip0_84_771">
<rect width="1366" height="768" fill="white"/>
</clipPath>
</defs>
</svg>
