<svg width="28" height="28" viewBox="0 0 28 28" fill="none" xmlns="http://www.w3.org/2000/svg">
<path d="M12.7196 0.228958C12.8188 0.150208 12.9179 0.074375 13.0171 0H0V10.2112L12.7196 0.228958Z" fill="#666666"/>
<path d="M26.8669 1.55167C27.3059 2.11167 27.6836 2.6775 28 3.24771V0H25.4363C25.9336 0.453542 26.4119 0.97125 26.8669 1.55167Z" fill="#666666"/>
<path d="M15.6712 7.47103L8.34741 13.2183L11.1328 16.7679L18.4566 11.0192C19.753 10.0027 20.9357 9.07374 19.543 7.29895C18.1503 5.52562 16.9676 6.45312 15.6712 7.47103Z" fill="#666666"/>
<path d="M28.0001 28V12.0517C27.2593 13.3131 26.1874 14.5119 24.7903 15.6085L15.7764 22.6829L19.9501 28" fill="#666666"/>
<path d="M0 17.0829V28H8.56917L0 17.0829Z" fill="#666666"/>
</svg>
