<svg width="733" height="636" viewBox="0 0 733 636" fill="none" xmlns="http://www.w3.org/2000/svg">
<path d="M710.2 632.553V633.553H711.2H729.633H730.633V632.553V613.151V612.151H729.633H711.2H710.2V613.151V632.553Z" fill="url(#paint0_linear_1600_119)" stroke="#B0B2C0" stroke-width="2"/>
<path d="M586.904 632.345L586.647 633.553H587.882H677.521H678.33L678.499 632.762L679.663 627.33L679.922 626.12H678.685H596.49L609.258 566.226H684.118H684.926L685.096 565.436L686.26 560.003L686.519 558.794H685.282H610.847L622.646 503.168H705.073H705.881L706.051 502.378L707.215 496.945L707.474 495.736H706.237H616.792H615.982L615.813 496.527L586.904 632.345Z" fill="url(#paint1_linear_1600_119)" stroke="#B0B2C0" stroke-width="2"/>
<path d="M509.864 632.703L509.993 633.553H510.853H517.256H517.833L518.122 633.053L596.508 497.235L597.373 495.736H595.642H588.269H587.687L587.4 496.241L534.239 589.562C534.239 589.563 534.239 589.564 534.238 589.564C528.032 600.333 521.824 611.278 515.777 622.396C514.31 611.735 512.687 600.932 511.066 590.302C511.066 590.301 511.065 590.3 511.065 590.299L497.485 496.592L497.36 495.736H496.495H490.286H489.123L489.297 496.885L509.864 632.703Z" fill="url(#paint2_linear_1600_119)" stroke="#B0B2C0" stroke-width="2"/>
<path d="M333.668 581.136C333.668 598.806 339.073 612.283 348.428 621.339C357.776 630.389 370.952 634.911 386.279 634.911C433.691 634.911 467.799 592.642 467.799 548.152C467.799 530.485 462.445 517.008 453.114 507.951C443.788 498.899 430.612 494.377 415.189 494.377C367.972 494.377 333.668 536.644 333.668 581.136ZM387.055 627.478C373.863 627.478 362.739 623.562 354.917 615.881C347.099 608.204 342.459 596.65 342.459 581.136C342.459 541.571 372.805 501.81 414.413 501.81C427.411 501.81 438.537 505.678 446.408 513.338C454.274 520.992 459.008 532.546 459.008 548.152C459.008 588.293 428.474 627.478 387.055 627.478Z" fill="url(#paint3_linear_1600_119)" stroke="#B0B2C0" stroke-width="2"/>
<path d="M167.022 632.345L166.765 633.553H168H174.209H175.018L175.187 632.761L199.634 517.898L199.636 517.891L199.637 517.883L201.203 509.921L226.975 632.758L227.142 633.553H227.954H235.133H235.681L235.976 633.09L314.222 510.267C314.147 510.598 314.073 510.93 313.998 511.262L313.997 511.268C313.562 513.202 313.123 515.149 312.733 517.099C312.733 517.101 312.732 517.104 312.732 517.106L288.093 632.344L287.835 633.553H289.071H295.28H296.09L296.258 632.761L325.168 496.944L325.425 495.736H324.19H314.489H313.937L313.643 496.202L232.749 624.332L206.426 496.534L206.262 495.736H205.447H196.91H196.1L195.932 496.527L167.022 632.345Z" fill="url(#paint4_linear_1600_119)" stroke="#B0B2C0" stroke-width="2"/>
<path d="M729.612 58.0148H730.658L730.611 56.9697C729.921 41.6933 723.856 27.7135 713.028 17.5534C702.197 7.39014 686.663 1.10583 667.136 1.10583C646.036 1.10583 629.07 8.42466 617.385 21.0972C605.71 33.76 599.392 51.676 599.392 72.7308C599.392 94.4771 606.202 112.487 617.872 125.07C629.547 137.658 646.021 144.744 665.196 144.744C677.872 144.744 688.543 141.745 697.167 136.218C704.465 131.542 710.257 125.082 714.553 117.176L711.353 140.699L711.199 141.833H712.344H730H731V140.833V84.5663C731 81.1613 729.964 78.3074 727.908 76.307C725.856 74.3097 722.912 73.283 719.329 73.283H665.196H664.196V74.283V90.3871V91.3871H665.196H711.353C708.362 107.283 693.277 126.64 667.136 126.64C654.023 126.64 642.313 121.466 633.874 112.173C625.431 102.876 620.212 89.4007 620.212 72.7308C620.212 57.0055 624.718 43.6228 632.801 34.1885C640.871 24.7702 652.568 19.2099 667.136 19.2099C692.635 19.2099 709.037 36.0891 709.792 57.0508L709.827 58.0148H710.792H729.612Z" fill="url(#paint5_linear_1600_119)" stroke="#B0B2C0" stroke-width="2"/>
<path d="M552.764 141.377L553.059 141.833H553.603H577.663H578.663V140.833V5.01611V4.01611H577.663H559.812H558.812V5.01611L558.812 93.1033L558.812 93.1116L558.983 113.567L488.28 4.47226L487.985 4.01611H487.441H463.188H462.188V5.01611V140.833V141.833H463.188H481.232H482.232V140.833L482.232 52.5522L482.232 52.5438L482.062 32.0925L552.764 141.377Z" fill="url(#paint6_linear_1600_119)" stroke="#B0B2C0" stroke-width="2"/>
<path d="M414.25 140.833V141.833H415.25H433.294H434.294V140.833V5.01611V4.01611H433.294H415.25H414.25V5.01611V140.833Z" fill="url(#paint7_linear_1600_119)" stroke="#B0B2C0" stroke-width="2"/>
<path d="M291.467 140.833V141.833H292.467H310.511H311.511V140.833V102.409L331.216 80.2872L376.256 141.426L376.556 141.833H377.062H399.956H401.962L400.755 140.232L344.398 65.4096L397.406 5.67988L398.882 4.01611H396.658H372.599H372.145L371.846 4.35819L311.511 73.4207V5.01611V4.01611H310.511H292.467H291.467V5.01611V140.833Z" fill="url(#paint8_linear_1600_119)" stroke="#B0B2C0" stroke-width="2"/>
<path d="M153.122 140.482L152.614 141.833H154.058H173.072H173.78L174.015 141.166L186.585 105.551H242.019L254.59 141.166L254.825 141.833H255.533H274.547H275.991L275.483 140.482L224.455 4.6644L224.211 4.01611H223.518H205.086H204.394L204.15 4.6644L153.122 140.482ZM235.493 87.6407H193.112L201.953 62.5916C201.953 62.5907 201.953 62.5899 201.954 62.589C204.186 56.3779 206.369 50.1673 208.551 43.9605L208.552 43.9587C210.459 38.5349 212.364 33.1139 214.302 27.6938C216.24 33.1133 218.145 38.5336 220.052 43.9568L220.053 43.9587C222.235 50.1661 224.419 56.3773 226.651 62.589C226.651 62.5899 226.652 62.5907 226.652 62.5916L235.493 87.6407Z" fill="url(#paint9_linear_1600_119)" stroke="#B0B2C0" stroke-width="2"/>
<path d="M1 140.833V141.833H2H19.6562H20.6562V140.833V54.2984C20.6562 50.4115 20.6077 46.5257 20.5592 42.6472L20.5592 42.6444C20.5306 40.3563 20.502 38.0707 20.4834 35.7863L57.9069 141.168L58.1432 141.833H58.8492H79.4158H80.1219L80.3582 141.168L117.782 35.7864C117.763 38.0707 117.735 40.3563 117.706 42.6444L117.706 42.6481C117.657 46.5263 117.609 50.4118 117.609 54.2984V140.833V141.833H118.609H136.265H137.265V140.833V5.01611V4.01611H136.265H109.878H109.168L108.934 4.68569L69.1325 118.377L29.3312 4.68569L29.0968 4.01611H28.3874H2H1V5.01611V140.833Z" fill="url(#paint10_linear_1600_119)" stroke="#B0B2C0" stroke-width="2"/>
<path d="M498.833 421.864H497.788L497.834 422.908C498.522 438.333 503.591 451.07 513.04 459.948C522.488 468.824 536.195 473.728 553.937 473.728C570.4 473.728 583.891 469.416 593.285 461.588C602.698 453.743 607.905 442.441 607.905 428.684C607.905 419.21 605.438 409.514 598.385 402.186C591.324 394.848 579.821 390.043 562.086 390.043H544.429C534.748 390.043 528.675 387.979 525.028 384.808C521.41 381.661 520.012 377.277 520.012 372.223C520.012 364.77 523.07 358.813 528.585 354.689C534.131 350.54 542.24 348.194 552.384 348.194C563.289 348.194 571.305 350.872 576.735 355.884C582.161 360.892 585.156 368.372 585.728 378.295L585.783 379.238H586.727H604.965H606.015L605.964 378.189C605.276 364.229 600.746 352.177 591.935 343.615C583.119 335.048 570.136 330.09 552.772 330.09C536.598 330.09 523.357 334.354 514.138 341.833C504.9 349.328 499.774 359.997 499.774 372.611C499.774 383.125 503.302 392.388 510.629 399.013C517.946 405.628 528.933 409.506 543.653 409.506H561.309C572.433 409.506 578.972 412.049 582.737 415.655C586.489 419.249 587.667 424.076 587.667 429.072C587.667 437.137 584.584 443.732 578.94 448.33C573.274 452.947 564.935 455.624 554.325 455.624C542.952 455.624 534.198 452.615 528.151 447.082C522.11 441.553 518.642 433.387 518.07 422.81L518.019 421.864H517.072H498.833Z" fill="url(#paint11_linear_1600_119)" stroke="#B0B2C0" stroke-width="2"/>
<path d="M492.975 453.714V452.714H491.975H430.888V334V333H429.888H411.843H410.843V334V469.818V470.818H411.843H491.975H492.975V469.818V453.714Z" fill="url(#paint12_linear_1600_119)" stroke="#B0B2C0" stroke-width="2"/>
<path d="M298.483 469.818V470.818H299.483H393.003H394.003V469.818V453.714V452.714H393.003H318.722V410.864H385.242H386.242V409.864V393.76V392.76H385.242H318.722V351.104H392.809H393.809V350.104V334V333H392.809H299.483H298.483V334V469.818Z" fill="url(#paint13_linear_1600_119)" stroke="#B0B2C0" stroke-width="2"/>
<path d="M282.632 470.818H284.561L283.449 469.242L235.543 401.327L282.48 334.576L283.587 333.001H281.662H260.125H259.602L259.304 333.43L223.26 385.302L187.217 333.43L186.918 333.001H186.396H164.859H162.938L164.04 334.574L210.785 401.326L163.07 469.243L161.964 470.818H163.889H185.425H185.948L186.246 470.389L223.26 417.158L260.274 470.389L260.572 470.818H261.095H282.632Z" fill="url(#paint14_linear_1600_119)" stroke="#B0B2C0" stroke-width="2"/>
<path d="M127.951 469.818V470.818H128.951H146.995H147.995V469.818V334.001V333.001H146.995H128.951H127.951V334.001V469.818Z" fill="url(#paint15_linear_1600_119)" stroke="#B0B2C0" stroke-width="2"/>
<path d="M1 469.818V470.818H2H20.0443H21.0443V469.818V416.491H60.0134C73.7636 416.491 85.6993 412.808 94.2171 405.76C102.757 398.693 107.773 388.313 107.773 375.134C107.773 361.958 102.76 351.389 94.2277 344.129C85.7133 336.884 73.7758 333.001 60.0134 333.001H2H1V334.001V469.818ZM57.8791 398.387H21.0443V351.105H57.8791C67.0233 351.105 74.2924 353.534 79.2572 357.71C84.2039 361.87 86.9529 367.839 86.9529 375.134C86.9529 382.425 84.2081 388.191 79.2744 392.156C74.3141 396.143 67.0419 398.387 57.8791 398.387Z" fill="url(#paint16_linear_1600_119)" stroke="#B0B2C0" stroke-width="2"/>
<path d="M635.511 305.05V306.05H636.511H730.031H731.031V305.05V288.946V287.946H730.031H655.749V246.096H722.27H723.27V245.096V228.992V227.992H722.27H655.749V186.337H729.837H730.837V185.337V169.233V168.233H729.837H636.511H635.511V169.233V305.05Z" fill="url(#paint17_linear_1600_119)" stroke="#B0B2C0" stroke-width="2"/>
<path d="M614.554 222.231H615.648L615.55 221.141C614.173 205.896 608.069 191.931 597.368 181.774C586.658 171.609 571.414 165.322 551.884 165.322C530.797 165.322 513.829 172.292 502.138 184.799C490.454 197.298 484.139 215.22 484.139 236.947C484.139 258.694 490.95 276.708 502.87 289.294C514.793 301.884 531.753 308.96 551.884 308.96C589.862 308.96 611.994 284.11 615.546 255.698L615.686 254.573H614.554H595.927H595.059L594.937 255.434C592.668 271.51 577.892 290.856 551.884 290.856C538.672 290.856 526.963 285.682 518.549 276.39C510.131 267.095 504.96 253.619 504.96 236.947C504.96 220.24 509.472 206.868 517.541 197.687C525.596 188.521 537.288 183.426 551.884 183.426C565.23 183.426 575.597 187.901 582.817 194.837C590.045 201.782 594.171 211.245 594.93 221.306L595 222.231H595.927H614.554Z" fill="url(#paint18_linear_1600_119)" stroke="#B0B2C0" stroke-width="2"/>
<path d="M443.381 305.05V306.05H444.381H462.425H463.425V305.05V169.233V168.233H462.425H444.381H443.381V169.233V305.05Z" fill="url(#paint19_linear_1600_119)" stroke="#B0B2C0" stroke-width="2"/>
<path d="M389.576 305.593L389.871 306.05H390.415H414.475H415.475V305.05V169.233V168.233H414.475H396.624H395.624V169.233L395.624 257.32L395.624 257.328L395.795 277.784L325.092 168.689L324.797 168.233H324.253H300H299V169.233V305.05V306.05H300H318.044H319.044V305.05L319.044 216.769L319.044 216.76L318.874 196.309L389.576 305.593Z" fill="url(#paint20_linear_1600_119)" stroke="#B0B2C0" stroke-width="2"/>
<defs>
<linearGradient id="paint0_linear_1600_119" x1="720.416" y1="613.151" x2="720.416" y2="632.553" gradientUnits="userSpaceOnUse">
<stop stop-color="#464646"/>
<stop offset="1" stop-color="#272727"/>
</linearGradient>
<linearGradient id="paint1_linear_1600_119" x1="647.059" y1="496.736" x2="647.059" y2="632.553" gradientUnits="userSpaceOnUse">
<stop stop-color="#464646"/>
<stop offset="1" stop-color="#272727"/>
</linearGradient>
<linearGradient id="paint2_linear_1600_119" x1="542.964" y1="496.736" x2="542.964" y2="632.553" gradientUnits="userSpaceOnUse">
<stop stop-color="#464646"/>
<stop offset="1" stop-color="#272727"/>
</linearGradient>
<linearGradient id="paint3_linear_1600_119" x1="400.734" y1="495.377" x2="400.734" y2="633.911" gradientUnits="userSpaceOnUse">
<stop stop-color="#464646"/>
<stop offset="1" stop-color="#272727"/>
</linearGradient>
<linearGradient id="paint4_linear_1600_119" x1="246.095" y1="496.736" x2="246.095" y2="632.553" gradientUnits="userSpaceOnUse">
<stop stop-color="#464646"/>
<stop offset="1" stop-color="#272727"/>
</linearGradient>
<linearGradient id="paint5_linear_1600_119" x1="665.196" y1="2.10583" x2="665.196" y2="143.744" gradientUnits="userSpaceOnUse">
<stop stop-color="#464646"/>
<stop offset="1" stop-color="#272727"/>
</linearGradient>
<linearGradient id="paint6_linear_1600_119" x1="520.425" y1="5.01611" x2="520.425" y2="140.833" gradientUnits="userSpaceOnUse">
<stop stop-color="#464646"/>
<stop offset="1" stop-color="#272727"/>
</linearGradient>
<linearGradient id="paint7_linear_1600_119" x1="424.272" y1="5.01611" x2="424.272" y2="140.833" gradientUnits="userSpaceOnUse">
<stop stop-color="#464646"/>
<stop offset="1" stop-color="#272727"/>
</linearGradient>
<linearGradient id="paint8_linear_1600_119" x1="346.212" y1="5.01611" x2="346.212" y2="140.833" gradientUnits="userSpaceOnUse">
<stop stop-color="#464646"/>
<stop offset="1" stop-color="#272727"/>
</linearGradient>
<linearGradient id="paint9_linear_1600_119" x1="214.302" y1="5.01611" x2="214.302" y2="140.833" gradientUnits="userSpaceOnUse">
<stop stop-color="#464646"/>
<stop offset="1" stop-color="#272727"/>
</linearGradient>
<linearGradient id="paint10_linear_1600_119" x1="69.1325" y1="5.01611" x2="69.1325" y2="140.833" gradientUnits="userSpaceOnUse">
<stop stop-color="#464646"/>
<stop offset="1" stop-color="#272727"/>
</linearGradient>
<linearGradient id="paint11_linear_1600_119" x1="552.869" y1="331.09" x2="552.869" y2="472.728" gradientUnits="userSpaceOnUse">
<stop stop-color="#464646"/>
<stop offset="1" stop-color="#272727"/>
</linearGradient>
<linearGradient id="paint12_linear_1600_119" x1="451.909" y1="334" x2="451.909" y2="469.818" gradientUnits="userSpaceOnUse">
<stop stop-color="#464646"/>
<stop offset="1" stop-color="#272727"/>
</linearGradient>
<linearGradient id="paint13_linear_1600_119" x1="346.243" y1="334" x2="346.243" y2="469.818" gradientUnits="userSpaceOnUse">
<stop stop-color="#464646"/>
<stop offset="1" stop-color="#272727"/>
</linearGradient>
<linearGradient id="paint14_linear_1600_119" x1="223.26" y1="334.001" x2="223.26" y2="469.818" gradientUnits="userSpaceOnUse">
<stop stop-color="#464646"/>
<stop offset="1" stop-color="#272727"/>
</linearGradient>
<linearGradient id="paint15_linear_1600_119" x1="137.973" y1="334.001" x2="137.973" y2="469.818" gradientUnits="userSpaceOnUse">
<stop stop-color="#464646"/>
<stop offset="1" stop-color="#272727"/>
</linearGradient>
<linearGradient id="paint16_linear_1600_119" x1="54.3866" y1="334.001" x2="54.3866" y2="469.818" gradientUnits="userSpaceOnUse">
<stop stop-color="#464646"/>
<stop offset="1" stop-color="#272727"/>
</linearGradient>
<linearGradient id="paint17_linear_1600_119" x1="683.271" y1="169.233" x2="683.271" y2="305.05" gradientUnits="userSpaceOnUse">
<stop stop-color="#464646"/>
<stop offset="1" stop-color="#272727"/>
</linearGradient>
<linearGradient id="paint18_linear_1600_119" x1="549.846" y1="166.322" x2="549.846" y2="307.96" gradientUnits="userSpaceOnUse">
<stop stop-color="#464646"/>
<stop offset="1" stop-color="#272727"/>
</linearGradient>
<linearGradient id="paint19_linear_1600_119" x1="453.403" y1="169.233" x2="453.403" y2="305.05" gradientUnits="userSpaceOnUse">
<stop stop-color="#464646"/>
<stop offset="1" stop-color="#272727"/>
</linearGradient>
<linearGradient id="paint20_linear_1600_119" x1="357.237" y1="169.233" x2="357.237" y2="305.05" gradientUnits="userSpaceOnUse">
<stop stop-color="#464646"/>
<stop offset="1" stop-color="#272727"/>
</linearGradient>
</defs>
</svg>
