<svg width="1885" height="618" viewBox="0 0 1885 618" fill="none" xmlns="http://www.w3.org/2000/svg">
<path d="M736.547 613.846V614.846H737.547H762.472H763.472V613.846V587.608V586.608H762.472H737.547H736.547V587.608V613.846Z" fill="url(#paint0_linear_1595_87)" stroke="#B0B2C0" stroke-width="2"/>
<path d="M569.81 613.637L569.553 614.845H570.788H692.004H692.812L692.981 614.055L694.556 606.709L694.815 605.499H693.578H581.994L599.409 523.803H700.924H701.733L701.902 523.012L703.476 515.666L703.735 514.456H702.498H601.408L617.513 438.532H729.26H730.069L730.238 437.741L731.812 430.395L732.072 429.186H730.835H609.881H609.072L608.903 429.977L569.81 613.637Z" fill="url(#paint1_linear_1595_87)" stroke="#B0B2C0" stroke-width="2"/>
<path d="M465.635 613.995L465.764 614.845H466.624H475.282H475.86L476.148 614.345L582.146 430.685L583.012 429.186H581.28H571.31H570.729L570.441 429.691L498.554 555.887C498.553 555.888 498.553 555.888 498.552 555.889C489.986 570.754 481.417 585.866 473.079 601.222C471.058 586.463 468.81 571.492 466.563 556.764C466.563 556.762 466.563 556.761 466.563 556.76L448.198 430.042L448.074 429.186H447.208H438.812H437.65L437.824 430.335L465.635 613.995Z" fill="url(#paint2_linear_1595_87)" stroke="#B0B2C0" stroke-width="2"/>
<path d="M227.379 544.317C227.379 568.138 234.663 586.262 247.23 598.428C259.791 610.588 277.512 616.682 298.17 616.682C362.054 616.682 408.054 559.719 408.054 499.714C408.054 475.895 400.837 457.771 388.302 445.604C375.773 433.442 358.051 427.349 337.263 427.349C273.644 427.349 227.379 484.31 227.379 544.317ZM299.22 607.336C281.312 607.336 266.173 602.018 255.514 591.552C244.86 581.09 238.562 565.367 238.562 544.317C238.562 490.672 279.707 436.695 336.214 436.695C353.86 436.695 369.001 441.948 379.726 452.384C390.445 462.814 396.871 478.537 396.871 499.714C396.871 554.139 355.47 607.336 299.22 607.336Z" fill="url(#paint3_linear_1595_87)" stroke="#B0B2C0" stroke-width="2"/>
<path d="M2.02191 613.637L1.76474 614.845H3H11.3959H12.2054L12.374 614.054L45.4327 458.73L45.4343 458.722L45.4358 458.715L47.8886 446.247L83.094 614.051L83.2607 614.845H84.0727H93.7804H94.3291L94.6238 614.383L201.509 446.604C201.266 447.703 201.019 448.803 200.771 449.906L200.769 449.912C200.18 452.53 199.588 455.161 199.062 457.793C199.061 457.796 199.061 457.798 199.06 457.801L165.742 613.636L165.483 614.845H166.72H175.116H175.925L176.094 614.054L215.187 430.394L215.444 429.186H214.209H201.09H200.539L200.245 429.652L90.3883 603.656L54.6171 429.984L54.4527 429.186H53.6376H42.0933H41.2838L41.1152 429.977L2.02191 613.637Z" fill="url(#paint4_linear_1595_87)" stroke="#B0B2C0" stroke-width="2"/>
<path d="M986.917 77.2511H987.964L987.916 76.2059C986.987 55.6326 978.82 36.8174 964.251 23.146C949.678 9.4714 928.761 1 902.434 1C873.986 1 851.143 10.8647 835.417 27.92C819.701 44.9655 811.178 69.1011 811.178 97.5031C811.178 126.836 820.364 151.099 836.075 168.039C851.791 184.985 873.972 194.531 899.81 194.531C916.894 194.531 931.256 190.49 942.854 183.058C953.201 176.428 961.303 167.127 967.172 155.68L962.576 189.461L962.421 190.595H963.566H987.442H988.442V189.595V113.508C988.442 108.975 987.064 105.216 984.368 102.591C981.675 99.9705 977.791 98.6021 973.012 98.6021H899.81H898.81V99.6021V121.379V122.379H899.81H962.649C958.765 144.088 938.212 170.754 902.434 170.754C884.605 170.754 868.675 163.718 857.194 151.076C845.709 138.43 838.628 120.119 838.628 97.5031C838.628 76.1734 844.74 57.9894 855.737 45.1548C866.72 32.3362 882.637 24.7768 902.434 24.7768C937.091 24.7768 959.439 47.7389 960.468 76.2871L960.503 77.2511H961.467H986.917Z" fill="url(#paint5_linear_1595_87)" stroke="#B0B2C0" stroke-width="2"/>
<path d="M748.069 190.139L748.365 190.595H748.909H781.443H782.443V189.595V5.9356V4.9356H781.443H757.305H756.305V5.9356L756.305 125.052L756.305 125.06L756.545 153.931L660.28 5.39174L659.984 4.9356H659.44H626.644H625.644V5.9356V189.595V190.595H626.644H651.045H652.045V189.595L652.045 70.2165L652.044 70.2082L651.804 41.3412L748.069 190.139Z" fill="url(#paint6_linear_1595_87)" stroke="#B0B2C0" stroke-width="2"/>
<path d="M560.819 189.595V190.595H561.819H586.22H587.22V189.595V5.9356V4.9356H586.22H561.819H560.819V5.9356V189.595Z" fill="url(#paint7_linear_1595_87)" stroke="#B0B2C0" stroke-width="2"/>
<path d="M394.788 189.595V190.595H395.788H420.188H421.188V189.595V137.502L448.213 107.163L509.376 190.189L509.676 190.595H510.181H541.141H543.146L541.94 188.994L465.557 87.5849L537.429 6.59937L538.905 4.9356H536.681H504.147H503.693L503.394 5.27768L421.188 99.3748V5.9356V4.9356H420.188H395.788H394.788V5.9356V189.595Z" fill="url(#paint8_linear_1595_87)" stroke="#B0B2C0" stroke-width="2"/>
<path d="M207.685 189.244L207.178 190.595H208.622H234.334H235.041L235.277 189.928L252.358 141.532H327.818L344.899 189.928L345.134 190.595H345.842H371.554H372.998L372.49 189.244L303.487 5.58389L303.243 4.9356H302.55H277.625H276.933L276.689 5.58389L207.685 189.244ZM319.241 118.018H260.935L273.056 83.6733C273.057 83.6724 273.057 83.6716 273.057 83.6707C276.075 75.2727 279.028 66.8751 281.979 58.4814L281.979 58.4791C284.667 50.8357 287.353 43.1955 290.088 35.5559C292.823 43.1951 295.509 50.835 298.196 58.478L298.196 58.4791L298.198 58.4833C301.148 66.8764 304.1 75.2733 307.118 83.6707C307.119 83.6716 307.119 83.6724 307.119 83.6733L319.241 118.018Z" fill="url(#paint9_linear_1595_87)" stroke="#B0B2C0" stroke-width="2"/>
<path d="M2 189.595V190.595H3H26.8758H27.8758V189.595V72.5779C27.8758 67.3241 27.8101 62.0714 27.7446 56.826L27.7445 56.8231C27.6971 53.0319 27.6498 49.2445 27.6272 45.4586L78.9324 189.93L79.1687 190.595H79.8748H107.686H108.392L108.628 189.93L159.934 45.4586C159.911 49.2445 159.864 53.0319 159.816 56.8231L159.816 56.8269C159.751 62.072 159.685 67.3244 159.685 72.5779V189.595V190.595H160.685H184.561H185.561V189.595V5.9356V4.9356H184.561H148.878H148.169L147.935 5.60518L93.7804 160.294L39.6263 5.60518L39.3919 4.9356H38.6825H3H2V5.9356V189.595Z" fill="url(#paint10_linear_1595_87)" stroke="#B0B2C0" stroke-width="2"/>
<path d="M1736.58 338.296H1735.54L1735.58 339.341C1736.51 360.131 1743.34 377.259 1756.03 389.187C1768.73 401.113 1787.17 407.726 1811.1 407.726C1833.3 407.726 1851.46 401.91 1864.08 391.391C1876.72 380.855 1883.72 365.674 1883.72 347.167C1883.72 334.413 1880.4 321.402 1870.95 311.579C1861.49 301.747 1846.04 295.267 1822.12 295.267H1798.24C1785.11 295.267 1776.8 292.468 1771.77 288.101C1766.78 283.758 1764.87 277.716 1764.87 270.817C1764.87 260.631 1769.05 252.469 1776.6 246.824C1784.18 241.155 1795.23 237.972 1809 237.972C1823.8 237.972 1834.74 241.606 1842.16 248.464C1849.59 255.318 1853.66 265.531 1854.44 279.008L1854.49 279.951H1855.44H1880.1H1881.15L1881.1 278.902C1880.17 260.09 1874.07 243.886 1862.23 232.384C1850.39 220.879 1832.93 214.195 1809.52 214.195C1787.71 214.195 1769.89 219.945 1757.5 229.996C1745.09 240.063 1738.21 254.388 1738.21 271.342C1738.21 285.478 1742.95 297.902 1752.77 306.783C1762.58 315.653 1777.34 320.881 1797.19 320.881H1821.07C1836.15 320.881 1845.1 324.33 1850.28 329.294C1855.46 334.247 1857.06 340.884 1857.06 347.692C1857.06 358.696 1852.85 367.717 1845.13 374.007C1837.39 380.315 1826.02 383.949 1811.62 383.949C1796.18 383.949 1784.25 379.864 1775.99 372.306C1767.74 364.753 1763.02 353.613 1762.24 339.242L1762.19 338.296H1761.24H1736.58Z" fill="url(#paint11_linear_1595_87)" stroke="#B0B2C0" stroke-width="2"/>
<path d="M1728.31 381.013V380.013H1727.31H1644.35V219.13V218.13H1643.35H1618.95H1617.95V219.13V402.79V403.79H1618.95H1727.31H1728.31V402.79V381.013Z" fill="url(#paint12_linear_1595_87)" stroke="#B0B2C0" stroke-width="2"/>
<path d="M1466.01 402.79V403.79H1467.01H1593.47H1594.47V402.79V381.013V380.013H1593.47H1492.67V322.718H1582.98H1583.98V321.718V299.941V298.941H1582.98H1492.67V241.907H1593.21H1594.21V240.907V219.13V218.13H1593.21H1467.01H1466.01V219.13V402.79Z" fill="url(#paint13_linear_1595_87)" stroke="#B0B2C0" stroke-width="2"/>
<path d="M1444.22 403.791H1446.15L1445.04 402.214L1380.11 310.173L1443.73 219.706L1444.83 218.131H1442.91H1413.78H1413.26L1412.96 218.56L1363.93 289.121L1314.9 218.56L1314.61 218.131H1314.08H1284.96H1283.04L1284.14 219.704L1347.49 310.173L1282.83 402.216L1281.72 403.791H1283.65H1312.77H1313.29L1313.59 403.362L1363.93 330.963L1414.27 403.362L1414.57 403.791H1415.1H1444.22Z" fill="url(#paint14_linear_1595_87)" stroke="#B0B2C0" stroke-width="2"/>
<path d="M1235.4 402.791V403.791H1236.4H1260.8H1261.8V402.791V219.131V218.131H1260.8H1236.4H1235.4V219.131V402.791Z" fill="url(#paint15_linear_1595_87)" stroke="#B0B2C0" stroke-width="2"/>
<path d="M1063.73 402.791V403.791H1064.73H1089.13H1090.13V402.791V330.327H1143.18C1161.72 330.327 1177.77 325.362 1189.21 315.896C1200.67 306.412 1207.41 292.478 1207.41 274.753C1207.41 257.032 1200.68 242.841 1189.22 233.095C1177.79 223.364 1161.73 218.131 1143.18 218.131H1064.73H1063.73V219.131V402.791ZM1140.3 306.55H1090.13V241.908H1140.3C1152.72 241.908 1162.64 245.208 1169.43 250.921C1176.21 256.62 1179.96 264.792 1179.96 274.753C1179.96 284.71 1176.21 292.612 1169.45 298.047C1162.66 303.503 1152.74 306.55 1140.3 306.55Z" fill="url(#paint16_linear_1595_87)" stroke="#B0B2C0" stroke-width="2"/>
<path d="M850.05 402.79V403.79H851.05H977.513H978.513V402.79V381.013V380.013H977.513H876.713V322.718H967.018H968.018V321.718V299.941V298.941H967.018H876.713V241.907H977.251H978.251V240.907V219.13V218.13H977.251H851.05H850.05V219.13V402.79Z" fill="url(#paint17_linear_1595_87)" stroke="#B0B2C0" stroke-width="2"/>
<path d="M821.359 290.446H822.453L822.355 289.356C820.5 268.814 812.277 250.014 797.877 236.345C783.468 222.668 762.944 214.195 736.613 214.195C708.18 214.195 685.334 223.591 669.601 240.421C653.876 257.243 645.357 281.384 645.357 310.698C645.357 340.031 654.544 364.299 670.589 381.242C686.64 398.189 709.477 407.726 736.613 407.726C787.782 407.726 817.569 374.264 822.351 336.009L822.492 334.885H821.359H796.171H795.303L795.181 335.746C792.091 357.631 771.985 383.949 736.613 383.949C718.652 383.949 702.722 376.912 691.275 364.272C679.824 351.627 672.807 333.316 672.807 310.698C672.807 288.044 678.926 269.871 689.908 257.375C700.876 244.895 716.789 237.972 736.613 237.972C754.744 237.972 768.853 244.052 778.687 253.5C788.529 262.957 794.142 275.838 795.174 289.521L795.244 290.446H796.171H821.359Z" fill="url(#paint18_linear_1595_87)" stroke="#B0B2C0" stroke-width="2"/>
<path d="M590.241 402.79V403.79H591.241H615.642H616.642V402.79V219.13V218.13H615.642H591.241H590.241V219.13V402.79Z" fill="url(#paint19_linear_1595_87)" stroke="#B0B2C0" stroke-width="2"/>
<path d="M517.425 403.333L517.721 403.79H518.265H550.799H551.799V402.79V219.13V218.13H550.799H526.661H525.661V219.13L525.661 338.247L525.661 338.255L525.901 367.126L429.636 218.587L429.34 218.13H428.796H396H395V219.13V402.79V403.79H396H420.4H421.4V402.79L421.401 283.411L421.4 283.403L421.16 254.536L517.425 403.333Z" fill="url(#paint20_linear_1595_87)" stroke="#B0B2C0" stroke-width="2"/>
<defs>
<linearGradient id="paint0_linear_1595_87" x1="750.01" y1="587.608" x2="750.01" y2="613.846" gradientUnits="userSpaceOnUse">
<stop stop-color="#464646"/>
<stop offset="1" stop-color="#272727"/>
</linearGradient>
<linearGradient id="paint1_linear_1595_87" x1="650.811" y1="430.186" x2="650.811" y2="613.845" gradientUnits="userSpaceOnUse">
<stop stop-color="#464646"/>
<stop offset="1" stop-color="#272727"/>
</linearGradient>
<linearGradient id="paint2_linear_1595_87" x1="510.046" y1="430.186" x2="510.046" y2="613.845" gradientUnits="userSpaceOnUse">
<stop stop-color="#464646"/>
<stop offset="1" stop-color="#272727"/>
</linearGradient>
<linearGradient id="paint3_linear_1595_87" x1="317.717" y1="428.349" x2="317.717" y2="615.682" gradientUnits="userSpaceOnUse">
<stop stop-color="#464646"/>
<stop offset="1" stop-color="#272727"/>
</linearGradient>
<linearGradient id="paint4_linear_1595_87" x1="108.604" y1="430.186" x2="108.604" y2="613.845" gradientUnits="userSpaceOnUse">
<stop stop-color="#464646"/>
<stop offset="1" stop-color="#272727"/>
</linearGradient>
<linearGradient id="paint5_linear_1595_87" x1="899.81" y1="2" x2="899.81" y2="193.531" gradientUnits="userSpaceOnUse">
<stop stop-color="#464646"/>
<stop offset="1" stop-color="#272727"/>
</linearGradient>
<linearGradient id="paint6_linear_1595_87" x1="704.044" y1="5.9356" x2="704.044" y2="189.595" gradientUnits="userSpaceOnUse">
<stop stop-color="#464646"/>
<stop offset="1" stop-color="#272727"/>
</linearGradient>
<linearGradient id="paint7_linear_1595_87" x1="574.02" y1="5.9356" x2="574.02" y2="189.595" gradientUnits="userSpaceOnUse">
<stop stop-color="#464646"/>
<stop offset="1" stop-color="#272727"/>
</linearGradient>
<linearGradient id="paint8_linear_1595_87" x1="468.464" y1="5.9356" x2="468.464" y2="189.595" gradientUnits="userSpaceOnUse">
<stop stop-color="#464646"/>
<stop offset="1" stop-color="#272727"/>
</linearGradient>
<linearGradient id="paint9_linear_1595_87" x1="290.088" y1="5.9356" x2="290.088" y2="189.595" gradientUnits="userSpaceOnUse">
<stop stop-color="#464646"/>
<stop offset="1" stop-color="#272727"/>
</linearGradient>
<linearGradient id="paint10_linear_1595_87" x1="93.7804" y1="5.9356" x2="93.7804" y2="189.595" gradientUnits="userSpaceOnUse">
<stop stop-color="#464646"/>
<stop offset="1" stop-color="#272727"/>
</linearGradient>
<linearGradient id="paint11_linear_1595_87" x1="1809.65" y1="215.195" x2="1809.65" y2="406.726" gradientUnits="userSpaceOnUse">
<stop stop-color="#464646"/>
<stop offset="1" stop-color="#272727"/>
</linearGradient>
<linearGradient id="paint12_linear_1595_87" x1="1673.13" y1="219.13" x2="1673.13" y2="402.79" gradientUnits="userSpaceOnUse">
<stop stop-color="#464646"/>
<stop offset="1" stop-color="#272727"/>
</linearGradient>
<linearGradient id="paint13_linear_1595_87" x1="1530.24" y1="219.13" x2="1530.24" y2="402.79" gradientUnits="userSpaceOnUse">
<stop stop-color="#464646"/>
<stop offset="1" stop-color="#272727"/>
</linearGradient>
<linearGradient id="paint14_linear_1595_87" x1="1363.93" y1="219.131" x2="1363.93" y2="402.791" gradientUnits="userSpaceOnUse">
<stop stop-color="#464646"/>
<stop offset="1" stop-color="#272727"/>
</linearGradient>
<linearGradient id="paint15_linear_1595_87" x1="1248.6" y1="219.131" x2="1248.6" y2="402.791" gradientUnits="userSpaceOnUse">
<stop stop-color="#464646"/>
<stop offset="1" stop-color="#272727"/>
</linearGradient>
<linearGradient id="paint16_linear_1595_87" x1="1135.57" y1="219.131" x2="1135.57" y2="402.791" gradientUnits="userSpaceOnUse">
<stop stop-color="#464646"/>
<stop offset="1" stop-color="#272727"/>
</linearGradient>
<linearGradient id="paint17_linear_1595_87" x1="914.282" y1="219.13" x2="914.282" y2="402.79" gradientUnits="userSpaceOnUse">
<stop stop-color="#464646"/>
<stop offset="1" stop-color="#272727"/>
</linearGradient>
<linearGradient id="paint18_linear_1595_87" x1="733.858" y1="215.195" x2="733.858" y2="406.726" gradientUnits="userSpaceOnUse">
<stop stop-color="#464646"/>
<stop offset="1" stop-color="#272727"/>
</linearGradient>
<linearGradient id="paint19_linear_1595_87" x1="603.441" y1="219.13" x2="603.441" y2="402.79" gradientUnits="userSpaceOnUse">
<stop stop-color="#464646"/>
<stop offset="1" stop-color="#272727"/>
</linearGradient>
<linearGradient id="paint20_linear_1595_87" x1="473.4" y1="219.13" x2="473.4" y2="402.79" gradientUnits="userSpaceOnUse">
<stop stop-color="#464646"/>
<stop offset="1" stop-color="#272727"/>
</linearGradient>
</defs>
</svg>
