<svg xmlns="http://www.w3.org/2000/svg" width="12" height="12" viewBox="0 0 12 12">
  <defs>
    <style>
      .cls-1 {
        fill: #fff;
        opacity: 0;
      }

      .cls-2 {
        fill: #fff;
      }
    </style>
  </defs>
  <title>hokup-icon</title>
  <g id="Layer_2" data-name="Layer 2">
    <g id="Layer_2-2" data-name="Layer 2">
      <rect class="cls-1" width="12" height="12"/>
    </g>
    <g id="Layer_1-2" data-name="Layer 1">
      <g>
        <path class="cls-2" d="M10.40747.79619h-2.314a.80282.80282,0,0,0-.80281.80281v.68555A1.13286,1.13286,0,0,0,8.42346,3.4174h2.78682V1.599A.80281.80281,0,0,0,10.40747.79619Z"/>
        <path class="cls-2" d="M3.57654,8.67036H.78972v1.967a.56644.56644,0,0,0,.56643.56643H4.143a.56644.56644,0,0,0,.56643-.56643V9.80321A1.13285,1.13285,0,0,0,3.57654,8.67036Z"/>
        <path class="cls-2" d="M10.07743,5.99054H8.58123l-3.05133.007a.82049.82049,0,0,1-.82051-.82035V1.929A1.13285,1.13285,0,0,0,3.57654.79619h-1.984A.80282.80282,0,0,0,.78972,1.599V4.87661A1.13286,1.13286,0,0,0,1.92257,6.00946H3.88886A.8205.8205,0,0,1,4.70937,6.83l.00165.61782a.88275.88275,0,0,0,.049.29134A1.3173,1.3173,0,0,0,6.012,8.59567h.5195a.8161.8161,0,0,1,.75916.69683V10.071a1.13285,1.13285,0,0,0,1.13285,1.13285h2.78682V7.12339A1.13286,1.13286,0,0,0,10.07743,5.99054Z"/>
      </g>
    </g>
  </g>
</svg>
