<svg xmlns="http://www.w3.org/2000/svg" width="45.0002" height="45" viewBox="0 0 45.0002 45">
  <defs>
    <style>
      .cls-1 {
        fill: #ccc;
        opacity: 0.8;
      }
    </style>
  </defs>
  <title>main-logo</title>
  <g id="Layer_2" data-name="Layer 2">
    <g id="main-logo">
      <rect class="cls-1" width="44.9998" height="45"/>
      <g id="main-logo-2" data-name="main-logo">
        <path d="M20.4422.368c.1594-.12656.3187-.24844.4781-.368H0V16.4109Z"/>
        <path d="M43.1791,2.49375a20.74761,20.74761,0,0,1,1.8211,2.72578V0H40.8799A20.40131,20.40131,0,0,1,43.1791,2.49375Z"/>
        <path d="M25.1858,12.007,13.4155,21.2437l4.4766,5.7047,11.7703-9.239c2.0836-1.6336,3.9844-3.1266,1.7461-5.9789C29.1702,8.88046,27.2694,10.3711,25.1858,12.007Z"/>
        <path d="M44.9998,45V19.3687a20.70646,20.70646,0,0,1-5.1586,5.7165L25.3545,36.4547,32.0623,45"/>
        <path d="M0,27.4547V45H13.7719Z"/>
      </g>
    </g>
  </g>
</svg>
