<svg width="1293" height="180" viewBox="0 0 1293 180" fill="none" xmlns="http://www.w3.org/2000/svg">
<path d="M1204.17 179.43C1155.17 179.43 1115.48 139.495 1115.48 90.0048C1115.48 41.0048 1155.17 1.06982 1204.17 1.06982C1252.93 1.06982 1292.62 41.0048 1292.62 90.0048C1292.62 139.495 1252.93 179.43 1204.17 179.43ZM1132.63 90.0048C1132.63 130.43 1164.73 163.015 1204.17 163.015C1243.37 163.015 1275.47 130.43 1275.47 90.0048C1275.47 50.3148 1243.37 17.4848 1204.17 17.4848C1164.73 17.4848 1132.63 50.0698 1132.63 90.0048ZM1159.09 90.0048C1159.09 61.5848 1176.24 41.2498 1205.15 41.2498C1231.61 41.2498 1246.07 58.3998 1248.03 79.2248H1230.14C1229.16 67.2198 1220.34 56.9298 1205.15 56.9298C1187.76 56.9298 1176.73 70.6498 1176.73 90.0048C1176.73 110.585 1189.23 123.57 1205.15 123.57C1220.1 123.57 1228.43 112.545 1230.14 103.235H1248.03C1245.58 122.1 1230.63 139.25 1205.15 139.25C1177.71 139.25 1159.09 119.895 1159.09 90.0048Z" fill="#272727"/>
<path d="M982.667 176V4.5H1100.51V24.835H1005.7V79.96H1090.96V100.295H1005.7V155.665H1100.76V176H982.667Z" fill="#272727"/>
<path d="M875.806 179.675C825.581 179.675 791.526 144.395 791.526 90.0052C791.526 35.6152 823.131 0.825195 875.806 0.825195C924.561 0.825195 951.511 32.1852 954.941 70.1602H931.421C929.461 44.1902 910.106 21.1602 875.806 21.1602C838.321 21.1602 815.291 47.3752 815.291 90.0052C815.291 132.635 841.751 159.34 875.806 159.34C909.371 159.34 928.481 134.35 931.421 113.525H954.941C950.531 148.805 923.091 179.675 875.806 179.675Z" fill="#272727"/>
<path d="M631.08 176L695.515 4.5H718.79L783.225 176H759.215L743.045 130.185H671.26L655.09 176H631.08ZM678.61 110.095H735.695L723.935 76.775C718.3 61.095 712.91 45.415 707.275 29.735H707.03C701.395 45.415 696.005 61.095 690.37 76.775L678.61 110.095Z" fill="#272727"/>
<path d="M529.782 179.675C482.007 179.675 447.952 144.395 447.952 90.0052C447.952 37.3302 479.557 0.825195 532.232 0.825195C580.987 0.825195 609.407 32.1852 611.122 70.1602H587.357C586.377 42.9652 565.062 21.1602 532.232 21.1602C494.747 21.1602 471.717 49.8252 471.717 90.0052C471.717 132.635 498.422 159.34 532.232 159.34C566.777 159.34 586.377 133.125 589.562 112.3H529.782V91.9652H598.137C606.712 91.9652 611.612 96.8652 611.612 104.95V176H589.317L594.217 139.985H593.727C582.702 164.73 561.387 179.675 529.782 179.675Z" fill="#272727"/>
<path d="M287.506 176L351.941 4.5H375.216L439.651 176H415.641L399.471 130.185H327.686L311.516 176H287.506ZM335.036 110.095H392.121L380.361 76.775C374.726 61.095 369.336 45.415 363.701 29.735H363.456C357.821 45.415 352.431 61.095 346.796 76.775L335.036 110.095Z" fill="#272727"/>
<path d="M160.816 176V4.5H278.661V24.835H183.846V79.96H269.106V100.295H183.846V155.665H278.906V176H160.816Z" fill="#272727"/>
<path d="M0.513672 176V4.5H73.7687C108.069 4.5 132.814 23.855 132.814 56.44C132.814 89.025 108.069 107.4 73.7687 107.4H23.2987V176H0.513672ZM23.2987 87.065H71.0737C94.5937 87.065 109.049 75.55 109.049 56.44C109.049 37.33 94.5937 24.835 71.0737 24.835H23.2987V87.065Z" fill="#272727"/>
</svg>
