<svg width="30" height="30" viewBox="0 0 30 30" fill="none" xmlns="http://www.w3.org/2000/svg">
<path d="M13.6281 0.245312C13.7344 0.160937 13.8406 0.0796875 13.9469 0H0V10.9406L13.6281 0.245312Z" fill="#272727"/>
<path d="M28.7857 1.6625C29.2561 2.2625 29.6607 2.86875 29.9998 3.47969V0H27.2529C27.7857 0.485937 28.2982 1.04062 28.7857 1.6625Z" fill="#272727"/>
<path d="M16.7907 8.0047L8.94385 14.1625L11.9282 17.9656L19.7751 11.8063C21.1642 10.7172 22.4313 9.72189 20.9392 7.82033C19.447 5.92033 18.1798 6.91408 16.7907 8.0047Z" fill="#272727"/>
<path d="M30.0002 30V12.9125C29.2064 14.2641 28.058 15.5484 26.5611 16.7234L16.9033 24.3031L21.3752 30" fill="#272727"/>
<path d="M0 18.3031V30H9.18125L0 18.3031Z" fill="#272727"/>
</svg>
